# Created by Kenney (www.kenney.nl)

mtllib flying_coll.mtl

g mergedBlocks

v -0.08046845 0.08756 -0.04645847
v -0.04747639 0.13046 -0.02741049
v -0.08046845 0.08756 -0.02290276
v -0.04747639 0.13046 0.02741051
v -0.08046845 0.08756 0.02290278
v -0.08046845 0.08756 0.04645848
v 0.02290276 0.08756 0.07969403
v -1.429158E-08 0.08756 0.09291696
v 0.08046842 0.08756 0.04645848
v 0.04747636 0.13046 0.02741051
v -1.42916E-08 0.13046 0.05482101
v 0.04747636 0.13046 -0.02741049
v -1.42916E-08 0.13046 -0.05482099
v -0.02290278 0.08756 -0.07969403
v -1.429158E-08 0.08756 -0.09291694
v 0.08046842 0.08756 -0.04645847
v 0.08046842 0.08756 -0.02290276
v 0.08046842 0.08756 0.02290278
v -0.02290278 0.08756 0.07969403
v 0.02290276 0.08756 -0.07969403
v 0.44 0.08756 0.05370276
v 0.385 0.08756 0.05370276
v 0.44 0.08756 -0.05370279
v 0.385 0.08756 -0.05370278
v -0.385 0.08756 -0.05370276
v -0.385 0.08756 0.05370278
v -0.44 0.08756 -0.05370276
v -0.44 0.08756 0.05370278
v -0.385 0.055 -0.05370276
v -0.44 0.055 -0.05370276
v 0.385 0.055 0.05370276
v 0.44 0.055 0.05370276
v 0.385 0.055 -0.05370278
v 0.44 0.055 -0.05370279
v 0.05370278 0.08756 0.44
v -0.05370276 0.08756 0.44
v 0.05370278 0.08756 0.385
v -0.05370276 0.08756 0.385
v -0.05370276 0.055 0.385
v -0.05370276 0.055 0.44
v 0.05370276 0.08756 -0.385
v -0.05370278 0.08756 -0.385
v 0.05370276 0.08756 -0.44
v -0.05370278 0.08756 -0.44
v 0.05370276 0.055 -0.44
v 0.05370276 0.055 -0.385
v 0.05370278 0.055 0.44
v 0.05370278 0.055 0.385
v -0.05370278 0.055 -0.44
v -0.05370278 0.055 -0.385
v -0.385 0.055 0.05370278
v -0.44 0.055 0.05370278
v 0.09466873 0 0.05465703
v -1.429158E-08 0 0.1093141
v 0.08046842 0.055 0.04645848
v -1.429158E-08 0.055 0.09291696
v 0.02290276 0.055 0.07969403
v -1.429158E-08 0 -0.109314
v 0.09466873 0 -0.05465702
v -1.429158E-08 0.055 -0.09291694
v 0.08046842 0.055 -0.04645847
v 0.02290276 0.055 -0.07969403
v -0.09466876 0 -0.05465702
v -0.08046845 0.055 -0.04645847
v -0.09466876 0 0.05465703
v -0.08046845 0.055 -0.02290276
v -0.08046845 0.055 0.02290278
v -0.08046845 0.055 0.04645848
v 0.08046842 0.055 -0.02290276
v 0.08046842 0.055 0.02290278
v -0.02290278 0.055 0.07969403
v -0.02290278 0.055 -0.07969403
v -0.5192 0.055 0.05370278
v -0.5192 0.055 -0.05370276
v -0.55 0.055 0.02290278
v -0.55 0.055 -0.02290276
v -0.2178688 0.055 0.05370278
v -0.2178688 0.08756 0.05370278
v -0.5192 0.08756 -0.05370276
v -0.5192 0.08756 0.05370278
v -0.55 0.08756 -0.02290276
v -0.55 0.08756 0.02290278
v -0.1562688 0.055 0.02290278
v -0.1562688 0.08756 0.02290278
v -0.1562688 0.055 -0.02290276
v -0.1562688 0.08756 -0.02290276
v -0.2178688 0.055 -0.05370276
v -0.2178688 0.08756 -0.05370276
v 0.55 0.08756 0.02290275
v 0.55 0.055 0.02290275
v 0.5192 0.08756 0.05370275
v 0.5192 0.055 0.05370275
v 0.55 0.08756 -0.02290279
v 0.55 0.055 -0.02290279
v 0.5192 0.08756 -0.05370279
v 0.1562688 0.055 -0.02290277
v 0.2178688 0.055 -0.05370277
v 0.1562688 0.08756 -0.02290277
v 0.2178688 0.08756 -0.05370277
v 0.2178688 0.055 0.05370277
v 0.1562688 0.055 0.02290277
v 0.2178688 0.08756 0.05370277
v 0.1562688 0.08756 0.02290277
v 0.5192 0.055 -0.05370279
v 0.02290279 0.055 0.55
v -0.02290275 0.055 0.55
v 0.02290279 0.08756 0.55
v -0.02290275 0.08756 0.55
v 0.05370278 0.055 0.5192
v -0.05370276 0.055 0.5192
v 0.02290276 0.08756 0.1562688
v 0.02290276 0.055 0.1562688
v 0.05370277 0.08756 0.2178687
v 0.05370277 0.055 0.2178687
v 0.05370278 0.08756 0.5192
v -0.02290278 0.055 0.1562688
v -0.02290278 0.08756 0.1562688
v -0.05370277 0.055 0.2178687
v -0.05370277 0.08756 0.2178687
v -0.05370276 0.08756 0.5192
v -0.02290278 0.055 -0.1562688
v -0.02290278 0.08756 -0.1562688
v -0.05370278 0.055 -0.5192
v -0.05370278 0.08756 -0.5192
v -0.05370278 0.055 -0.2178688
v -0.05370278 0.08756 -0.2178688
v 0.05370276 0.08756 -0.5192
v 0.05370276 0.055 -0.5192
v 0.02290276 0.08756 -0.55
v -0.02290278 0.08756 -0.55
v 0.02290276 0.055 -0.55
v 0.02290276 0.08756 -0.1562688
v 0.02290276 0.055 -0.1562688
v -0.02290278 0.055 -0.55
v 0.05370276 0.08756 -0.2178688
v 0.05370276 0.055 -0.2178688

vn -0.7926949 0.6096185 0
vn 0.3963475 0.6096185 0.6864939
vn 0 1 0
vn -0.3963475 0.6096185 -0.6864939
vn 0.7926949 0.6096185 0
vn -0.3963475 0.6096185 0.6864939
vn 0.3963475 0.6096185 -0.6864939
vn 0 0 -1
vn 0 0 1
vn -1 0 0
vn 1 0 0
vn 0 -1 0
vn 0.4841242 0.2499897 0.8385278
vn 0.4841242 0.2499897 -0.8385278
vn -0.9682485 0.2499897 0
vn 0.9682485 0.2499897 0
vn -0.4841242 0.2499897 0.8385278
vn -0.4841242 0.2499897 -0.8385278
vn -0.7071068 0 -0.7071068
vn 0.4472136 0 0.8944272
vn 0.4472136 0 -0.8944272
vn -0.7071068 0 0.7071068
vn 0.7071068 0 0.7071067
vn -0.4472136 0 -0.8944272
vn -0.4472135 0 0.8944273
vn 0.7071067 0 -0.7071068
vn 0.8944272 0 -0.4472136
vn -0.8944273 0 -0.4472135
vn -0.7071067 0 0.7071068
vn 0.7071068 0 -0.7071068
vn -0.8944272 0 0.4472136
vn 0.8944272 0 0.4472136
vn -0.5 0 0.8660254
vn 0.5 0 0.8660254
vn -0.5 0 -0.8660254
vn 0.5 0 -0.8660254

vt -0.04645847 0.08756
vt -0.02741049 0.13046
vt -0.02290276 0.08756
vt 0.02741051 0.13046
vt 0.02290278 0.08756
vt 0.04645848 0.08756
vt 0.02290276 0.08756
vt -1.429158E-08 0.08756
vt 0.08046842 0.08756
vt 0.04747636 0.13046
vt -1.42916E-08 0.13046
vt -0.04747636 -0.02741049
vt -0.04747636 0.02741051
vt 1.42916E-08 -0.05482099
vt 1.42916E-08 0.05482101
vt 0.04747639 -0.02741049
vt 0.04747639 0.02741051
vt -0.02290278 0.08756
vt -0.08046845 0.08756
vt 0.04747639 0.13046
vt 0.08046845 0.08756
vt 1.429158E-08 0.08756
vt 1.42916E-08 0.13046
vt 0.04645847 0.08756
vt 0.02290276 0.08756
vt 0.02741049 0.13046
vt -0.02741051 0.13046
vt -0.02290278 0.08756
vt -0.04645848 0.08756
vt -0.02290278 0.08756
vt -0.04747639 0.13046
vt 0.02290276 0.08756
vt -0.08046842 0.08756
vt -0.04747636 0.13046
vt -0.44 0.05370276
vt -0.385 0.05370276
vt -0.44 -0.05370279
vt -0.385 -0.05370278
vt 0.385 -0.05370276
vt 0.385 0.05370278
vt 0.44 -0.05370276
vt 0.44 0.05370278
vt 0.385 0.055
vt 0.385 0.08756
vt 0.44 0.055
vt 0.44 0.08756
vt -0.385 0.055
vt -0.44 0.055
vt -0.385 0.08756
vt -0.44 0.08756
vt -0.05370278 0.44
vt 0.05370276 0.44
vt -0.05370278 0.385
vt 0.05370276 0.385
vt -0.05370276 -0.385
vt 0.05370278 -0.385
vt -0.05370276 -0.44
vt 0.05370278 -0.44
vt -0.44 -0.05370276
vt -0.44 0.05370279
vt -0.385 -0.05370276
vt -0.385 0.05370278
vt -0.05370278 -0.44
vt -0.05370278 -0.385
vt 0.05370276 -0.44
vt 0.05370276 -0.385
vt -0.44 0.08756
vt -0.44 0.055
vt -0.05370276 0.385
vt -0.05370276 0.44
vt 0.05370278 0.385
vt 0.05370278 0.44
vt 0.385 -0.05370278
vt 0.385 0.05370276
vt 0.44 -0.05370278
vt 0.44 0.05370276
vt 0.09466873 0
vt -1.429158E-08 0
vt 0.08046842 0.055
vt -1.429158E-08 0.055
vt 0.02290276 0.055
vt 1.429158E-08 0
vt -0.09466873 0
vt 1.429158E-08 0.055
vt -0.08046842 0.055
vt 0.02290276 0.055
vt -0.05465702 0
vt -0.04645847 0.055
vt 0.05465703 0
vt -0.02290276 0.055
vt 0.02290278 0.055
vt 0.04645848 0.055
vt 0.05465702 0
vt -0.05465703 0
vt 0.04645847 0.055
vt 0.02290276 0.055
vt -0.02290278 0.055
vt -0.04645848 0.055
vt -0.09466873 -0.05465703
vt -0.09466873 0.05465702
vt 1.429158E-08 -0.1093141
vt 1.429158E-08 0.109314
vt 0.09466876 -0.05465703
vt 0.09466876 0.05465702
vt -0.09466876 0
vt -0.08046845 0.055
vt -0.02290278 0.055
vt 0.09466876 0
vt 0.08046845 0.055
vt -0.02290278 0.055
vt 0.5192 -0.05370278
vt 0.5192 0.05370276
vt 0.55 -0.02290278
vt 0.55 0.02290276
vt -0.2178688 0.055
vt -0.2178688 0.08756
vt 0.5192 -0.05370276
vt 0.5192 0.05370278
vt 0.55 -0.02290276
vt 0.55 0.02290278
vt -0.05370276 0.055
vt -0.05370276 0.08756
vt 0.5192 0.055
vt 0.5192 0.08756
vt -0.1562688 0.055
vt -0.1562688 0.08756
vt 0.1562688 0.055
vt 0.1562688 0.08756
vt 0.2178688 0.055
vt 0.2178688 0.08756
vt 0.05370278 0.055
vt 0.05370278 0.08756
vt -0.5192 0.055
vt -0.5192 0.08756
vt -0.02290275 0.08756
vt -0.02290275 0.055
vt -0.05370275 0.08756
vt -0.05370275 0.055
vt 0.02290279 0.08756
vt 0.02290279 0.055
vt -0.55 0.02290275
vt -0.5192 0.05370275
vt -0.55 -0.02290279
vt -0.5192 -0.05370279
vt 0.05370279 0.055
vt 0.05370279 0.08756
vt -0.55 -0.02290275
vt -0.55 0.02290279
vt -0.5192 -0.05370275
vt -0.5192 0.05370279
vt 0.02290279 0.055
vt -0.02290275 0.055
vt 0.02290279 0.08756
vt -0.02290275 0.08756
vt -0.05370278 -0.5192
vt -0.02290279 -0.55
vt 0.02290275 -0.55
vt 0.05370276 -0.5192
vt -0.1562688 0.08756
vt -0.1562688 0.055
vt -0.2178687 0.08756
vt -0.2178687 0.055
vt -0.5192 0.08756
vt -0.5192 0.055
vt -0.55 0.08756
vt -0.55 0.055
vt -0.07969403 0.08756
vt -0.07969403 0.055
vt 0.1562688 0.055
vt 0.1562688 0.08756
vt 0.2178687 0.055
vt 0.2178687 0.08756
vt 0.07969403 0.055
vt 0.07969403 0.08756
vt -0.05370276 0.055
vt -0.05370276 0.08756
vt -0.05370278 0.5192
vt -0.02290279 0.55
vt 0.02290275 0.55
vt 0.05370276 0.5192
vt -0.07969403 0.055
vt -0.07969403 0.08756
vt -0.2178688 0.055
vt -0.2178688 0.08756
vt -0.05370276 -0.5192
vt -0.02290276 -0.55
vt 0.02290278 -0.55
vt 0.05370278 -0.5192
vt -0.02290276 0.055
vt -0.02290276 0.08756
vt 0.07969403 0.08756
vt 0.07969403 0.055
vt 0.02290278 0.055
vt 0.02290278 0.08756
vt 0.05370278 0.055
vt 0.05370278 0.08756
vt 0.2178688 0.08756
vt 0.2178688 0.055
vt -0.05370276 0.5192
vt -0.02290276 0.55
vt 0.02290278 0.55
vt 0.05370278 0.5192
vt 0.08046845 -0.02290278
vt 0.08046845 0.02290276
vt 0.1562688 -0.02290278
vt 0.1562688 0.02290276
vt 0.2178688 -0.05370278
vt 0.2178688 0.05370276
vt -0.02290276 0.07969403
vt -0.02290276 0.1562688
vt 1.429158E-08 0.09291694
vt -0.05370276 0.2178688
vt 0.02290278 0.1562688
vt 0.02290278 0.07969403
vt 0.05370278 0.2178688
vt -0.05370277 -0.2178687
vt -0.02290276 -0.1562688
vt -0.02290276 -0.07969403
vt 1.429158E-08 -0.09291696
vt 0.02290278 -0.1562688
vt 0.05370277 -0.2178687
vt 0.02290278 -0.07969403
vt -0.2178688 -0.05370277
vt -0.2178688 0.05370277
vt -0.1562688 0.02290277
vt -0.1562688 -0.02290277
vt -0.08046842 0.02290278
vt -0.08046842 -0.02290276
vt -0.2178688 -0.05370277
vt -0.2178688 0.05370277
vt -0.1562688 -0.02290277
vt -0.1562688 0.02290277
vt -0.08046842 -0.02290278
vt -0.08046842 0.02290276
vt -0.05370276 -0.2178688
vt -0.02290276 -0.1562688
vt 1.429158E-08 -0.09291694
vt 0.02290278 -0.1562688
vt 0.02290278 -0.07969403
vt 0.05370278 -0.2178688
vt -0.02290276 -0.07969403
vt 1.429158E-08 0.09291696
vt 0.02290278 0.1562688
vt 0.02290278 0.07969403
vt -0.05370277 0.2178687
vt -0.02290276 0.1562688
vt -0.02290276 0.07969403
vt 0.05370277 0.2178687
vt 0.08046845 -0.02290276
vt 0.08046845 0.02290278
vt 0.1562688 -0.02290276
vt 0.1562688 0.02290278
vt 0.2178688 -0.05370276
vt 0.2178688 0.05370278

usemtl metalPurple(Clone)

f 3/3/1 2/2/1 1/1/1
f 2/2/1 3/3/1 4/4/1
f 4/4/1 3/3/1 5/5/1
f 4/4/1 5/5/1 6/6/1
f 9/9/2 8/8/2 7/7/2
f 8/8/2 9/9/2 10/10/2
f 8/8/2 10/10/2 11/11/2
f 13/14/3 10/13/3 12/12/3
f 10/13/3 13/14/3 11/15/3
f 11/15/3 13/14/3 2/16/3
f 11/15/3 2/16/3 4/17/3
f 1/19/4 15/8/4 14/18/4
f 15/22/4 1/21/4 2/20/4
f 15/22/4 2/20/4 13/23/4
f 12/26/5 17/25/5 16/24/5
f 17/25/5 12/26/5 10/27/5
f 17/25/5 10/27/5 18/28/5
f 18/28/5 10/27/5 9/29/5
f 8/8/6 6/19/6 19/30/6
f 6/19/6 8/8/6 11/11/6
f 6/19/6 11/11/6 4/31/6
f 15/8/7 16/9/7 20/32/7
f 16/33/7 15/22/7 13/23/7
f 16/33/7 13/23/7 12/34/7
f 23/37/3 22/36/3 21/35/3
f 22/36/3 23/37/3 24/38/3
f 27/41/3 26/40/3 25/39/3
f 26/40/3 27/41/3 28/42/3
f 30/45/8 25/44/8 29/43/8
f 25/44/8 30/45/8 27/46/8
f 32/45/9 22/44/9 31/43/9
f 22/44/9 32/45/9 21/46/9
f 24/49/8 34/48/8 33/47/8
f 34/48/8 24/49/8 23/50/8
f 37/53/3 36/52/3 35/51/3
f 36/52/3 37/53/3 38/54/3
f 40/45/10 38/44/10 39/43/10
f 38/44/10 40/45/10 36/46/10
f 43/57/3 42/56/3 41/55/3
f 42/56/3 43/57/3 44/58/3
f 41/44/11 45/45/11 43/46/11
f 45/45/11 41/44/11 46/43/11
f 31/61/12 34/60/12 32/59/12
f 34/60/12 31/61/12 33/62/12
f 40/65/12 48/64/12 47/63/12
f 48/64/12 40/65/12 39/66/12
f 35/67/11 48/47/11 37/49/11
f 48/47/11 35/67/11 47/68/11
f 50/47/10 44/50/10 49/48/10
f 44/50/10 50/47/10 42/49/10
f 50/71/12 45/70/12 46/69/12
f 45/70/12 50/71/12 49/72/12
f 26/49/9 52/48/9 51/47/9
f 52/48/9 26/49/9 28/50/9
f 52/75/12 29/74/12 51/73/12
f 29/74/12 52/75/12 30/76/12

usemtl dark(Clone)

f 55/79/13 54/78/13 53/77/13
f 54/78/13 55/79/13 56/80/13
f 56/80/13 55/79/13 57/81/13
f 60/84/14 59/83/14 58/82/14
f 59/83/14 60/84/14 61/85/14
f 61/79/14 60/80/14 62/86/14
f 65/89/15 64/88/15 63/87/15
f 64/88/15 65/89/15 66/90/15
f 66/90/15 65/89/15 67/91/15
f 67/91/15 65/89/15 68/92/15
f 61/95/16 53/94/16 59/93/16
f 53/94/16 61/95/16 69/96/16
f 53/94/16 69/96/16 70/97/16
f 53/94/16 70/97/16 55/98/16
f 54/101/12 59/100/12 53/99/12
f 59/100/12 54/101/12 58/102/12
f 58/102/12 54/101/12 65/103/12
f 58/102/12 65/103/12 63/104/12
f 56/80/17 65/105/17 54/78/17
f 65/105/17 56/80/17 68/106/17
f 68/106/17 56/80/17 71/107/17
f 64/109/18 58/82/18 63/108/18
f 58/82/18 64/109/18 60/84/18
f 60/80/18 64/106/18 72/110/18
f 73/111/12 30/76/12 52/75/12
f 30/76/12 73/111/12 74/112/12
f 74/112/12 73/111/12 75/113/12
f 74/112/12 75/113/12 76/114/12
f 78/116/9 51/47/9 77/115/9
f 51/47/9 78/116/9 26/49/9
f 79/117/3 28/42/3 27/41/3
f 28/42/3 79/117/3 80/118/3
f 80/118/3 79/117/3 81/119/3
f 80/118/3 81/119/3 82/120/3
f 81/3/19 74/121/19 76/90/19
f 74/121/19 81/3/19 79/122/19
f 79/124/8 30/45/8 74/123/8
f 30/45/8 79/124/8 27/46/8
f 84/126/20 77/115/20 83/125/20
f 77/115/20 84/126/20 78/116/20
f 85/127/8 3/21/8 66/109/8
f 3/21/8 85/127/8 86/128/8
f 75/91/10 81/3/10 76/90/10
f 81/3/10 75/91/10 82/5/10
f 88/130/21 85/127/21 87/129/21
f 85/127/21 88/130/21 86/128/21
f 80/132/22 75/91/22 73/131/22
f 75/91/22 80/132/22 82/5/22
f 28/50/9 73/133/9 52/48/9
f 73/133/9 28/50/9 80/134/9
f 91/137/23 90/136/23 89/135/23
f 90/136/23 91/137/23 92/138/23
f 89/135/11 94/140/11 93/139/11
f 94/140/11 89/135/11 90/136/11
f 93/143/3 91/142/3 89/141/3
f 91/142/3 93/143/3 95/144/3
f 91/142/3 95/144/3 21/35/3
f 21/35/3 95/144/3 23/37/3
f 98/126/24 97/115/24 96/125/24
f 97/115/24 98/126/24 99/116/24
f 91/124/9 32/45/9 92/123/9
f 32/45/9 91/124/9 21/46/9
f 102/130/25 101/127/25 100/129/25
f 101/127/25 102/130/25 103/128/25
f 95/146/26 94/140/26 104/145/26
f 94/140/26 95/146/26 93/139/26
f 23/50/8 104/133/8 34/48/8
f 104/133/8 23/50/8 95/134/8
f 92/149/12 94/148/12 90/147/12
f 94/148/12 92/149/12 104/150/12
f 104/150/12 92/149/12 32/59/12
f 104/150/12 32/59/12 34/60/12
f 103/128/9 70/79/9 101/127/9
f 70/79/9 103/128/9 18/9/9
f 17/33/8 96/125/8 69/85/8
f 96/125/8 17/33/8 98/126/8
f 107/153/9 106/152/9 105/151/9
f 106/152/9 107/153/9 108/154/9
f 105/156/12 47/63/12 109/155/12
f 47/63/12 105/156/12 40/65/12
f 40/65/12 105/156/12 106/157/12
f 40/65/12 106/157/12 110/158/12
f 113/161/27 112/160/27 111/159/27
f 112/160/27 113/161/27 114/162/27
f 37/49/11 114/162/11 113/161/11
f 114/162/11 37/49/11 48/47/11
f 107/165/23 109/164/23 115/163/23
f 109/164/23 107/165/23 105/166/23
f 111/159/11 57/168/11 7/167/11
f 57/168/11 111/159/11 112/160/11
f 118/171/28 117/170/28 116/169/28
f 117/170/28 118/171/28 119/172/28
f 110/123/10 36/46/10 40/45/10
f 36/46/10 110/123/10 120/124/10
f 116/169/10 19/174/10 71/173/10
f 19/174/10 116/169/10 117/170/10
f 108/154/29 110/175/29 106/152/29
f 110/175/29 108/154/29 120/176/29
f 35/51/3 107/178/3 115/177/3
f 107/178/3 35/51/3 36/52/3
f 107/178/3 36/52/3 108/179/3
f 108/179/3 36/52/3 120/180/3
f 115/163/11 47/68/11 35/67/11
f 47/68/11 115/163/11 109/164/11
f 72/181/10 122/126/10 121/125/10
f 122/126/10 72/181/10 14/182/10
f 49/48/10 124/134/10 123/133/10
f 124/134/10 49/48/10 44/50/10
f 125/183/10 42/49/10 50/47/10
f 42/49/10 125/183/10 126/184/10
f 43/46/11 128/123/11 127/124/11
f 128/123/11 43/46/11 45/45/11
f 127/185/3 44/58/3 43/57/3
f 44/58/3 127/185/3 129/186/3
f 44/58/3 129/186/3 130/187/3
f 44/58/3 130/187/3 124/188/3
f 129/190/30 128/175/30 131/189/30
f 128/175/30 129/190/30 127/176/30
f 20/191/11 133/127/11 132/128/11
f 133/127/11 20/191/11 62/192/11
f 121/125/31 126/184/31 125/183/31
f 126/184/31 121/125/31 122/126/31
f 130/194/8 131/189/8 134/193/8
f 131/189/8 130/194/8 129/190/8
f 123/195/19 130/194/19 134/193/19
f 130/194/19 123/195/19 124/196/19
f 132/128/32 136/198/32 135/197/32
f 136/198/32 132/128/32 133/127/32
f 49/72/12 128/199/12 45/70/12
f 128/199/12 49/72/12 131/200/12
f 131/200/12 49/72/12 134/201/12
f 134/201/12 49/72/12 123/202/12
f 5/19/9 83/125/9 67/106/9
f 83/125/9 5/19/9 84/126/9
f 83/205/12 66/204/12 67/203/12
f 66/204/12 83/205/12 85/206/12
f 85/206/12 83/205/12 77/207/12
f 85/206/12 77/207/12 87/208/12
f 87/208/12 77/207/12 51/73/12
f 87/208/12 51/73/12 29/74/12
f 60/211/12 133/210/12 62/209/12
f 133/210/12 46/69/12 136/212/12
f 46/69/12 133/210/12 50/71/12
f 50/71/12 133/210/12 60/211/12
f 50/71/12 60/211/12 121/213/12
f 121/213/12 60/211/12 72/214/12
f 50/71/12 121/213/12 125/215/12
f 66/90/10 1/1/10 64/88/10
f 1/1/10 66/90/10 3/3/10
f 68/92/10 5/5/10 67/91/10
f 5/5/10 68/92/10 6/6/10
f 9/29/11 70/97/11 18/28/11
f 70/97/11 9/29/11 55/98/11
f 17/25/11 61/95/11 16/24/11
f 61/95/11 17/25/11 69/96/11
f 71/107/33 6/19/33 68/106/33
f 6/19/33 71/107/33 19/30/33
f 9/9/34 57/81/34 55/79/34
f 57/81/34 9/9/34 7/7/34
f 1/21/35 72/193/35 64/109/35
f 72/193/35 1/21/35 14/194/35
f 62/189/36 16/33/36 61/85/36
f 16/33/36 62/189/36 20/190/36
f 39/43/10 119/172/10 118/171/10
f 119/172/10 39/43/10 38/44/10
f 39/66/12 114/216/12 48/64/12
f 114/216/12 39/66/12 112/217/12
f 112/217/12 39/66/12 57/218/12
f 57/218/12 39/66/12 56/219/12
f 56/219/12 39/66/12 116/220/12
f 116/220/12 39/66/12 118/221/12
f 71/222/12 56/219/12 116/220/12
f 99/223/3 22/36/3 24/38/3
f 22/36/3 99/223/3 102/224/3
f 102/224/3 99/223/3 103/225/3
f 103/225/3 99/223/3 98/226/3
f 103/225/3 98/226/3 18/227/3
f 18/227/3 98/226/3 17/228/3
f 31/43/9 102/130/9 100/129/9
f 102/130/9 31/43/9 22/44/9
f 100/229/12 33/62/12 31/61/12
f 33/62/12 100/229/12 97/230/12
f 97/230/12 100/229/12 101/231/12
f 97/230/12 101/231/12 96/232/12
f 96/232/12 101/231/12 70/233/12
f 96/232/12 70/233/12 69/234/12
f 99/116/8 33/47/8 97/115/8
f 33/47/8 99/116/8 24/49/8
f 41/55/3 132/236/3 135/235/3
f 132/236/3 41/55/3 42/56/3
f 132/236/3 42/56/3 15/237/3
f 15/237/3 42/56/3 122/238/3
f 15/237/3 122/238/3 14/239/3
f 122/238/3 42/56/3 126/240/3
f 15/237/3 20/241/3 132/236/3
f 135/197/11 46/43/11 41/44/11
f 46/43/11 135/197/11 136/198/11
f 19/244/3 117/243/3 8/242/3
f 113/245/3 38/54/3 37/53/3
f 38/54/3 113/245/3 111/246/3
f 38/54/3 111/246/3 7/247/3
f 38/54/3 7/247/3 8/242/3
f 38/54/3 8/242/3 117/243/3
f 38/54/3 117/243/3 119/248/3
f 86/251/3 5/250/3 3/249/3
f 5/250/3 86/251/3 84/252/3
f 84/252/3 86/251/3 88/253/3
f 84/252/3 88/253/3 78/254/3
f 78/254/3 88/253/3 25/39/3
f 78/254/3 25/39/3 26/40/3
f 29/43/8 88/130/8 87/129/8
f 88/130/8 29/43/8 25/44/8

